<svg width="27" height="24" viewBox="0 0 27 24" fill="none" xmlns="http://www.w3.org/2000/svg">
<path d="M2.93549 10.6928V17.5012C2.93549 18.2721 3.34709 18.9844 4.01434 19.3695L9.91029 22.7741C10.5775 23.1591 11.3999 23.1591 12.068 22.7741L17.9639 19.3695C18.6312 18.9844 19.0428 18.2721 19.0428 17.5012V10.6928C19.0428 9.92182 18.6312 9.20953 17.9639 8.82445L12.068 5.41985C11.4008 5.03477 10.5783 5.03477 9.91029 5.41985L4.01434 8.82445C3.34709 9.20953 2.93549 9.92182 2.93549 10.6928Z" fill="#4B88EA"/>
<g style="mix-blend-mode:multiply">
<path d="M6.69924 24C6.59714 24 6.49344 23.9743 6.39858 23.9188L2.19328 21.491C1.01795 20.8125 0.287186 19.5471 0.287186 18.1893V13.0362C0.287186 12.7033 0.557302 12.4332 0.890125 12.4332C1.22295 12.4332 1.49306 12.7033 1.49306 13.0362V18.1893C1.49306 19.1178 1.9923 19.982 2.79622 20.4467L7.00152 22.8745C7.29012 23.0409 7.389 23.4099 7.22259 23.6985C7.11085 23.8923 6.90826 24 6.70005 24H6.69924Z" fill="#010AAF"/>
</g>
<g style="mix-blend-mode:multiply">
<path d="M16.2844 22.0368C15.5561 22.0368 14.8269 21.8495 14.1774 21.4741L8.28304 18.0711C6.9831 17.321 6.17596 15.9222 6.17596 14.4213V7.61532C6.17596 6.1144 6.9831 4.7164 8.28304 3.96554L14.1774 0.562542C15.4773 -0.187514 17.0916 -0.187514 18.3915 0.562542L24.2858 3.96554C25.5858 4.71559 26.3929 6.1144 26.3929 7.61532V14.4213C26.3929 15.9222 25.5858 17.3202 24.2858 18.0711L18.3915 21.4741C17.7419 21.8495 17.0128 22.0368 16.2844 22.0368ZM16.2844 2.00881C15.9034 2.00881 15.5223 2.10686 15.1823 2.30302L9.28793 5.70601C8.60782 6.09833 8.18576 6.82989 8.18576 7.61532V14.4213C8.18576 15.2067 8.60782 15.9375 9.28793 16.3306L15.1823 19.7336C15.8624 20.1259 16.7065 20.1259 17.3866 19.7336L23.2809 16.3306C23.9611 15.9383 24.3831 15.2067 24.3831 14.4213V7.61532C24.3831 6.82989 23.9611 6.09913 23.2809 5.70601L17.3866 2.30302C17.0466 2.10686 16.6655 2.00881 16.2844 2.00881Z" fill="#010AAF"/>
</g>
</svg>
